<svg width="336" height="113" viewBox="0 0 336 113" fill="none" xmlns="http://www.w3.org/2000/svg">
<g clip-path="url(#clip0_6_3386)">
<path fill-rule="evenodd" clip-rule="evenodd" d="M335.999 50.8457V67.4351H326.876V58.9969C322.419 65.392 316.912 68.5965 310.328 68.5965C304.626 68.5965 299.742 66.3996 295.698 61.9846C292.745 58.78 290.87 55.0648 290.079 50.8457H299.98C300.673 52.8328 301.813 54.6309 303.408 56.2402C306.214 59.0669 309.628 60.4733 313.659 60.4733C317.689 60.4733 321.047 59.0669 323.888 56.2542C325.539 54.631 326.715 52.8258 327.407 50.8457H335.999ZM326.876 24.9296H335.999V43.7509H327.953C327.463 40.9172 326.106 38.4124 323.888 36.2644C321.047 33.4866 317.626 32.1013 313.659 32.1013C309.691 32.1013 306.396 33.4726 303.52 36.2294C301.218 38.4334 299.833 40.9382 299.371 43.7509H289.737C290.184 38.6993 292.192 34.2353 295.761 30.3381C299.84 25.8881 304.633 23.6562 310.125 23.6562C313.526 23.6562 316.744 24.5727 319.802 26.4199C322.845 28.246 325.203 30.6389 326.883 33.5706V24.9226L326.876 24.9296ZM271.923 50.8457L262.967 69.0164L253.962 50.8457H271.923ZM265.815 43.7579L275.092 24.9366H284.699L275.421 43.7579H265.822H265.815ZM241.123 24.9366H250.673L260.098 43.7579H250.443L241.116 24.9366H241.123ZM231.915 50.8527V67.4421H222.791V59.0039C218.341 65.399 212.828 68.6035 206.244 68.6035C200.541 68.6035 195.658 66.4065 191.614 61.9916C188.661 58.787 186.793 55.0717 185.995 50.8527H195.896C196.588 52.8398 197.729 54.6379 199.324 56.2472C202.13 59.0739 205.551 60.4803 209.574 60.4803C213.597 60.4803 216.963 59.0739 219.804 56.2612C221.455 54.638 222.63 52.8328 223.323 50.8527H231.915ZM222.791 24.9366H231.915V43.7579H223.869C223.379 40.9242 222.022 38.4194 219.804 36.2714C216.963 33.4936 213.541 32.1083 209.574 32.1083C205.607 32.1083 202.312 33.4796 199.436 36.2364C197.134 38.4404 195.749 40.9452 195.287 43.7579H185.652C186.1 38.7062 188.108 34.2423 191.677 30.3451C195.756 25.8951 200.548 23.6631 206.041 23.6631C209.441 23.6631 212.66 24.5797 215.717 26.4269C218.761 28.253 221.119 30.6459 222.798 33.5776V24.9296L222.791 24.9366ZM172.477 50.8527V67.4421H163.57V58.5841C159.26 65.2661 153.628 68.6035 146.652 68.6035C141.02 68.6035 136.192 66.3856 132.162 61.9426C129.237 58.7241 127.369 55.0228 126.564 50.8527H136.423C137.137 52.7138 138.291 54.435 139.886 55.9953C142.762 58.843 146.127 60.2704 149.976 60.2704C154.055 60.2704 157.525 58.899 160.366 56.1423C161.982 54.575 163.144 52.8118 163.843 50.8527H172.477ZM163.577 0.57373H172.484V43.7579H164.473C164.004 40.8893 162.64 38.3354 160.38 36.1104C157.539 33.2977 154.139 31.8914 150.186 31.8914C146.232 31.8914 142.657 33.2627 139.83 36.0055C137.549 38.2025 136.192 40.7843 135.744 43.7579H126.229C126.669 38.5943 128.698 34.0954 132.309 30.2401C136.402 25.8601 141.307 23.6631 146.995 23.6631C150.409 23.6631 153.579 24.5937 156.532 26.4409C159.484 28.302 161.842 30.7089 163.598 33.7035V0.57373H163.577Z" fill="#411353"/>
<path d="M331.754 78.1894V80.4564H331.831C332.293 79.6937 332.831 79.085 333.447 78.6372C334.056 78.1894 334.63 77.9655 335.147 77.9655C335.462 77.9655 335.749 77.9865 336.001 78.0355V83.0522C335.609 82.9822 335.231 82.9402 334.853 82.9402C333.895 82.9402 333.153 83.2691 332.621 83.9338C332.097 84.5915 331.824 85.522 331.824 86.7115V93.5614H327.094V78.1824H331.754V78.1894ZM318.719 85.9139C318.719 84.8783 318.376 83.9688 317.69 83.1921C317.005 82.4155 316.2 82.0306 315.283 82.0306C314.367 82.0306 313.513 82.3945 312.828 83.1221C312.135 83.8498 311.799 84.7174 311.799 85.7319C311.799 86.8374 312.142 87.782 312.821 88.5587C313.499 89.3353 314.325 89.7201 315.283 89.7201C316.242 89.7201 317.005 89.3423 317.69 88.5866C318.383 87.831 318.719 86.9354 318.719 85.9139ZM307.167 85.9139C307.167 83.5489 307.937 81.6038 309.469 80.1065C311.008 78.6022 312.974 77.8536 315.388 77.8536C317.62 77.8536 319.502 78.6162 321.021 80.1485C322.539 81.6808 323.302 83.5769 323.302 85.8509C323.302 88.1248 322.546 90.077 321.021 91.6023C319.502 93.1276 317.599 93.8902 315.311 93.8902C312.737 93.8902 310.736 93.0856 309.308 91.4693C307.881 89.8531 307.167 88.0059 307.167 85.9139ZM298.085 78.1824H302.745V93.5614H298.085V78.1824ZM297.491 72.494C297.491 71.7174 297.777 71.0527 298.344 70.4929C298.918 69.9332 299.597 69.6533 300.401 69.6533C301.206 69.6533 301.885 69.9332 302.458 70.4929C303.025 71.0527 303.312 71.7174 303.312 72.494C303.312 73.2707 303.025 73.9563 302.458 74.5161C301.885 75.0758 301.206 75.3557 300.401 75.3557C299.597 75.3557 298.918 75.0758 298.344 74.5161C297.777 73.9563 297.491 73.2847 297.491 72.494ZM288.409 69.6883H293.069V93.5614H288.409V69.6883ZM275.465 82.4644C274.548 82.4644 273.785 82.8283 273.17 83.542C272.554 84.2626 272.246 85.1722 272.246 86.2637C272.246 87.2922 272.54 88.1109 273.121 88.7336C273.708 89.3633 274.478 89.6711 275.43 89.6711C276.381 89.6711 277.137 89.3143 277.788 88.5936C278.438 87.873 278.76 86.9984 278.76 85.9768C278.76 85.0253 278.438 84.1996 277.788 83.507C277.137 82.8143 276.36 82.4644 275.465 82.4644ZM278.872 93.5614V90.9236H278.795C278.067 91.9521 277.34 92.7007 276.605 93.1625C275.863 93.6173 274.954 93.8552 273.869 93.8552C272.043 93.8552 270.49 93.0786 269.21 91.5323C267.922 89.986 267.285 88.1039 267.285 85.8789C267.285 83.6539 267.971 81.8067 269.335 80.2395C270.7 78.6722 272.323 77.8885 274.198 77.8885C275.094 77.8885 275.891 78.0845 276.605 78.4693C277.319 78.8541 278.074 79.4628 278.872 80.3094V78.1824H283.532V93.5614H278.872ZM237.22 78.1824H242.132L246.33 87.2992L250.052 78.1824H253.068L256.755 87.2293L260.939 78.1824H265.823L258.707 93.5614H255.006L251.571 85.1372L248.128 93.5614H244.287L237.206 78.1824H237.22ZM222.954 85.7879C222.954 86.5716 223.304 87.3412 223.996 88.0899C224.689 88.8315 225.508 89.2094 226.438 89.2094C227.369 89.2094 228.124 88.8525 228.768 88.1388C229.412 87.4322 229.734 86.5646 229.734 85.536C229.734 84.5075 229.426 83.6189 228.81 82.9332C228.194 82.2545 227.404 81.9117 226.438 81.9117C225.473 81.9117 224.633 82.2685 223.961 82.9822C223.29 83.6889 222.954 84.6265 222.954 85.7809V85.7879ZM229.734 92.6938V90.8886C228.334 92.6238 226.725 93.4914 224.899 93.4914C222.933 93.4914 221.288 92.7497 219.973 91.2594C218.658 89.7691 218 87.901 218 85.662C218 83.423 218.686 81.6528 220.05 80.1345C221.407 78.6162 223.052 77.8606 224.969 77.8606C226.599 77.8606 228.187 78.6792 229.741 80.3164V78.1894H234.359V93.7783C234.359 94.6389 234.086 95.6254 233.533 96.7449C232.98 97.8644 232.036 98.683 230.713 99.2148C229.384 99.7465 227.844 100.012 226.102 100.012C223.926 100.012 222.198 99.6136 220.89 98.8159C219.588 98.0183 218.651 96.6469 218.077 94.7018H223.297C224.318 96.0942 225.417 96.7869 226.606 96.7869C227.53 96.7869 228.285 96.4091 228.859 95.6534C229.44 94.8977 229.734 93.9112 229.734 92.7008V92.6938Z" fill="#411353"/>
<path fill-rule="evenodd" clip-rule="evenodd" d="M44.2966 62.6845C45.9898 63.748 48.2428 64.2798 51.0695 64.2798H55.1066V53.3298H58.1362V67.0155H50.9995C47.1862 67.0155 44.1706 66.2809 41.9596 64.8116C42.8272 64.2098 43.6109 63.4892 44.3036 62.6845M41.6798 48.8099C41.0151 50.2722 40.5043 52.3853 40.5043 54.3444C40.5043 56.0866 40.7492 57.6049 41.239 58.8923C41.0221 59.2561 40.7842 59.5989 40.5253 59.9278C40.0495 60.5295 39.4968 61.0613 38.881 61.4811C37.7616 59.571 37.3278 57.367 37.3278 54.4143C37.3278 51.4617 38.0904 48.6979 39.6157 46.5429C40.3504 47.2496 41.085 47.9703 41.6798 48.8099ZM28.5258 66.085L28.7707 50.2792C30.0441 55.9046 30.1421 60.9353 31.7863 62.9224C32.493 63.776 34.711 63.3422 35.4106 63.3422C40.7072 63.3422 43.6459 57.6119 43.7088 52.896C43.8208 44.5279 33.9693 47.0957 37.1039 34.3475C37.7056 45.1156 46.4516 43.2125 46.8854 52.826C47.1862 59.508 42.4074 66.078 35.3757 66.078H28.5258V66.085ZM41.092 35.1941C41.8687 35.1941 42.5054 36.1597 42.5054 37.3421C42.5054 38.5246 41.8757 39.4902 41.092 39.4902C40.3084 39.4902 39.6787 38.5316 39.6787 37.3421C39.6787 36.1527 40.3084 35.1941 41.092 35.1941ZM58.3601 33.8088C58.577 34.0117 58.598 34.3475 58.3951 34.5714C58.1922 34.7953 57.8494 34.8093 57.6325 34.6064C57.4156 34.4035 57.3946 34.0676 57.5975 33.8437C57.8004 33.6268 58.1362 33.6059 58.3601 33.8088ZM58.682 37.1882C59.0038 37.4751 59.0248 37.9719 58.7309 38.2937C58.4441 38.6156 57.9473 38.6366 57.6255 38.3497C57.3036 38.0628 57.2826 37.566 57.5765 37.2442C57.8633 36.9223 58.3601 36.9013 58.682 37.1882ZM63.9016 33.5849C64.0835 33.7458 64.0975 34.0257 63.9296 34.2076C63.7686 34.3895 63.4888 34.4035 63.3069 34.2356C63.1249 34.0746 63.1109 33.7878 63.2789 33.6129C63.4398 33.4309 63.7197 33.4169 63.9016 33.5849ZM61.9005 32.3814C62.0824 32.5423 62.0964 32.8292 61.9285 33.0041C61.7676 33.186 61.4807 33.2 61.3058 33.0321C61.1239 32.8712 61.1099 32.5843 61.2778 32.4094C61.4387 32.2275 61.7186 32.2135 61.9005 32.3814ZM56.1981 32.7453C56.513 33.0321 56.541 33.5289 56.2471 33.8507C55.9532 34.1726 55.4634 34.1936 55.1416 33.8997C54.8197 33.6129 54.7988 33.1161 55.0926 32.7942C55.3795 32.4724 55.8763 32.4514 56.1981 32.7453ZM61.7885 35.5929C62.2363 35.9988 62.2643 36.6844 61.8655 37.1252C61.4597 37.566 60.774 37.601 60.3332 37.1952C59.8854 36.7894 59.8574 36.1037 60.2632 35.6629C60.6691 35.2221 61.3547 35.1871 61.7955 35.5929H61.7885ZM66.0496 40.6656C66.2665 40.8685 66.2875 41.2044 66.0846 41.4283C65.8817 41.6522 65.5388 41.6662 65.3219 41.4633C65.098 41.2603 65.084 40.9175 65.2869 40.7006C65.4899 40.4767 65.8257 40.4627 66.0496 40.6656ZM62.957 40.3298C63.1739 40.5327 63.1949 40.8685 62.992 41.0854C62.7891 41.3093 62.4532 41.3233 62.2293 41.1204C62.0055 40.9175 61.9915 40.5747 62.1944 40.3578C62.3973 40.1339 62.7401 40.1199 62.957 40.3228V40.3298ZM66.1266 34.9352C66.3505 35.1382 66.3644 35.474 66.1615 35.6979C65.9586 35.9148 65.6158 35.9358 65.3989 35.7329C65.175 35.53 65.161 35.1941 65.3639 34.9702C65.5668 34.7463 65.9027 34.7323 66.1266 34.9352ZM64.4053 37.2582C64.6292 37.4611 64.6432 37.7969 64.4403 38.0208C64.2374 38.2377 63.9016 38.2587 63.6777 38.0558C63.4608 37.8529 63.4398 37.5101 63.6427 37.2932C63.8456 37.0763 64.1814 37.0553 64.4053 37.2582ZM68.1416 38.3497C68.5894 38.7555 68.6174 39.4412 68.2186 39.882C67.8128 40.3298 67.1271 40.3578 66.6863 39.9589C66.2385 39.5531 66.2105 38.8674 66.6163 38.4266C67.0221 37.9789 67.7078 37.9509 68.1486 38.3497H68.1416ZM60.3332 40.0079C60.4941 40.1479 60.5011 40.3927 60.3612 40.5537C60.2143 40.7076 59.9694 40.7216 59.8155 40.5817C59.6545 40.4417 59.6475 40.1898 59.7875 40.0359C59.9344 39.875 60.1723 39.868 60.3332 40.0079ZM67.6519 42.5897C67.8128 42.7367 67.8198 42.9816 67.6798 43.1355C67.5399 43.2964 67.295 43.3034 67.1341 43.1635C66.9802 43.0235 66.9662 42.7717 67.1061 42.6177C67.253 42.4568 67.4979 42.4498 67.6519 42.5897ZM66.8892 33.1231C67.0152 33.235 67.0221 33.4309 66.9102 33.5569C66.7982 33.6828 66.6023 33.6898 66.4764 33.5779C66.3505 33.4659 66.3435 33.27 66.4554 33.1441C66.5674 33.0181 66.7633 33.0111 66.8892 33.1231ZM66.2595 36.9503C66.4134 37.0973 66.4274 37.3421 66.2875 37.4961C66.1405 37.657 65.9027 37.664 65.7417 37.5241C65.5808 37.3771 65.5738 37.1392 65.7137 36.9783C65.8607 36.8174 66.0986 36.8104 66.2595 36.9503ZM56.1701 26.3502L56.401 26.3152C57.4785 26.1683 58.619 26.0353 59.7455 25.9444C60.746 25.8604 61.7606 25.8044 62.7261 25.7904C63.3768 25.7834 64.0065 25.7904 64.6362 25.8044C65.2869 25.8254 65.9097 25.8604 66.5324 25.9094C66.8262 25.9304 67.1271 25.9584 67.435 25.9933C67.7148 26.0283 68.0157 26.0633 68.3236 26.1053C68.6034 26.1473 68.8833 26.1962 69.1562 26.2452L69.4081 26.2942V10.7263C69.4081 8.29845 69.4081 6.99705 67.8268 5.01696C67.5889 4.71609 67.26 4.41523 66.9102 4.13536C66.5394 3.84849 66.1405 3.58961 65.7837 3.41469C65.3289 3.19779 64.8671 3.01587 64.3774 2.89693C63.8876 2.77099 63.3628 2.70802 62.7821 2.70802C62.2573 2.70802 61.7186 2.77798 61.2078 2.90393C60.6971 3.02287 60.2213 3.19779 59.8294 3.41469C59.5916 3.54063 59.3956 3.65258 59.2207 3.76453C59.0458 3.87648 58.8779 3.99542 58.696 4.13536L58.577 4.23332C58.535 4.2683 58.4931 4.30328 58.4231 4.35926C58.3811 4.39424 58.3531 4.42223 58.3251 4.45022L58.2062 4.56217C57.8144 4.926 57.4645 5.3528 57.1637 5.84258C56.8698 6.31836 56.6319 6.85012 56.457 7.42385C56.1701 8.35443 56.1841 9.35497 56.1911 10.3905V10.9782V26.3502H56.1701ZM59.1717 27.8755C60.5851 28.0574 62.1244 28.1274 63.6567 28.0854C64.6362 28.0574 65.6158 27.9874 66.5604 27.8685H66.5184C65.203 27.7495 63.9995 27.6936 62.8031 27.6936C61.6276 27.6936 60.4452 27.7565 59.1717 27.8755ZM72.7385 42.6597L72.7035 42.8906H88.0685H88.6632C89.6988 42.8976 90.6993 42.9116 91.6229 42.6247C92.1966 42.4498 92.7214 42.2119 93.2041 41.918C93.6869 41.6172 94.1207 41.2673 94.4776 40.8755L94.5895 40.7566C94.5895 40.7566 94.6525 40.7006 94.6805 40.6516C94.7365 40.5817 94.7714 40.5397 94.8064 40.4977L94.9044 40.3857C95.0443 40.2038 95.1632 40.0359 95.2752 39.854C95.3801 39.6931 95.4921 39.4902 95.625 39.2453C95.8349 38.8604 96.0099 38.3847 96.1358 37.8669C96.2617 37.3561 96.3317 36.8174 96.3317 36.2926C96.3317 35.7119 96.2687 35.1871 96.1428 34.6974C96.0169 34.2076 95.8419 33.7458 95.625 33.291C95.4501 32.9342 95.1982 32.5353 94.9044 32.1575C94.6315 31.8077 94.3236 31.4788 94.0228 31.2409C92.0497 29.6597 90.7413 29.6597 88.3134 29.6597H72.7595L72.8015 29.9185C72.8505 30.1844 72.9065 30.4573 72.9414 30.7442C72.9834 31.052 73.0184 31.3529 73.0534 31.6328C73.0884 31.9406 73.1164 32.2415 73.1373 32.5353C73.1793 33.1511 73.2213 33.7808 73.2423 34.4315C73.2633 35.0612 73.2703 35.6909 73.2563 36.3416C73.2423 37.3072 73.1863 38.3217 73.1024 39.3222C73.0114 40.4417 72.8785 41.5892 72.7315 42.6667L72.7385 42.6597ZM70.9613 35.404C70.9194 36.9363 70.9893 38.4756 71.1712 39.889C71.2902 38.6156 71.3462 37.4331 71.3462 36.2576C71.3462 35.0612 71.2902 33.8507 71.1782 32.5284V32.4934C71.0593 33.4379 70.9823 34.4175 70.9613 35.397V35.404ZM70.2197 44.5908C70.1847 44.4579 70.1357 44.311 70.0798 44.164C70.0308 44.0241 69.9748 43.8771 69.9398 43.7442L69.7999 43.2474C69.7509 43.0725 69.7089 42.9116 69.6809 42.7856V42.7647C69.604 42.4428 69.534 42.121 69.471 41.7921C69.4081 41.4563 69.3521 41.1204 69.3031 40.7776C69.0652 39.0913 68.9952 37.2442 69.0722 35.39C69.1562 33.4799 69.3941 31.5698 69.7649 29.8556L69.9328 29.1349L69.2191 29.2888C67.5049 29.6597 65.5948 29.9046 63.6847 29.9815C61.8375 30.0585 59.9834 29.9885 58.2971 29.7506C57.9543 29.7016 57.6185 29.6457 57.2826 29.5827C56.9398 29.5197 56.6109 29.4498 56.2821 29.3728C56.1421 29.3378 55.9742 29.2958 55.7993 29.2469L55.3235 29.1139C55.1836 29.0719 55.0436 29.023 54.9037 28.974C54.7568 28.918 54.6098 28.869 54.4769 28.834C54.246 28.7781 54.0711 28.5682 54.0641 28.3233C54.0431 27.3297 54.0501 26.3082 54.0571 25.2937V23.8873C54.0641 19.4583 54.1411 14.9734 54.0641 10.5514C54.0641 8.99114 54.0641 8.01158 54.5609 6.54925C54.7358 6.03849 54.9527 5.5767 55.2046 5.1429C55.4565 4.71609 55.7363 4.32427 56.0372 3.93245C56.2261 3.69456 56.478 3.42169 56.7369 3.1698C57.0097 2.90393 57.2896 2.65904 57.5345 2.47712C59.1158 1.29466 60.9769 0.706932 62.8241 0.713929C64.6782 0.713929 66.5254 1.30866 68.0717 2.49811C68.3515 2.71501 68.6104 2.93191 68.8553 3.1768C69.1002 3.41469 69.3311 3.67357 69.555 3.94645C69.6809 4.10038 69.8209 4.29629 69.9538 4.4782C70.0728 4.64613 70.1917 4.82105 70.2757 4.98197C70.8634 6.0035 71.1782 6.85012 71.3392 7.7527C71.5001 8.6413 71.5141 9.53689 71.5141 10.6844V19.9131C71.5141 21.3055 71.5281 25.7345 71.5141 27.5606C73.3473 27.5466 77.7762 27.5606 79.1546 27.5606H88.3764C89.5238 27.5606 90.4194 27.5746 91.308 27.7355C92.2036 27.8965 93.0572 28.2043 94.0788 28.7991L94.1067 28.82C94.2537 28.904 94.4146 29.016 94.5755 29.1279C94.7784 29.2678 94.9673 29.4078 95.1143 29.5267L95.1423 29.5547C95.4081 29.7716 95.653 29.9955 95.8839 30.2264C96.1218 30.4713 96.3457 30.7302 96.5626 31.01C97.7521 32.5563 98.3468 34.4035 98.3468 36.2576C98.3468 38.1118 97.759 39.9729 96.5836 41.5472C96.4017 41.7921 96.1568 42.072 95.8909 42.3449C95.639 42.6037 95.3662 42.8556 95.1283 43.0445C94.7365 43.3524 94.3446 43.6323 93.9178 43.8771C93.484 44.129 93.0292 44.3459 92.5185 44.5209C91.0561 45.0106 90.0766 45.0176 88.5163 45.0176C84.0943 45.0876 79.6094 45.0176 75.1804 45.0176H73.7671C72.7595 45.0316 71.738 45.0386 70.7514 45.0176C70.4996 45.0176 70.2966 44.8357 70.2407 44.6048L70.2197 44.5908ZM8.82982 49.6915C8.39602 48.2501 7.82928 46.8998 7.38848 46.1441C5.65328 43.1775 4.70171 42.7507 2.69363 40.8685C5.3874 41.7921 7.81529 45.2485 8.80883 47.9913C8.79484 48.572 8.80883 49.1387 8.82982 49.6985V49.6915ZM20.1506 42.2889C22.3336 39.777 24.2927 33.5499 24.5306 30.3034C22.5995 30.4713 20.7733 30.6812 18.9682 31.129C16.8132 31.6607 14.5672 32.5563 12.811 33.9837C13.0769 33.5499 13.3148 33.186 13.5177 32.9202C21.0882 22.8518 31.3175 23.8383 42.1905 27.7285C37.2648 23.2016 28.2949 20.0601 20.2486 23.7684C13.6856 26.798 9.41055 33.7738 9.44554 40.7286C9.33359 42.1629 9.46653 43.6533 9.9633 44.8637L11.1947 41.981C12.9929 38.4896 14.1754 37.4401 16.9601 35.1521C18.0236 34.5994 19.1151 33.7248 20.5075 33.5009L19.1711 34.2636C16.7712 35.369 12.6361 39.868 11.7265 42.7437C11.1737 43.4154 10.2991 46.389 10.0613 47.5015C9.89333 48.2781 9.7394 49.3137 9.66244 50.3632C9.50151 49.7754 9.33359 49.2017 9.13768 48.635C9.90733 45.4584 8.55695 42.7157 6.87072 41.4143C5.98213 40.7286 0.468653 38.3217 0.0138612 38.2587C-0.140068 43.0585 0.678556 45.1436 3.55424 47.2286C5.6043 48.7189 7.04564 49.4816 8.438 51.7206C8.8858 52.4412 9.03972 53.1269 9.36857 53.7566C12.4052 67.4703 26.9095 75.3137 34.3821 83.381C36.0893 85.2282 37.5167 86.8445 39.07 88.9855C40.4133 90.8396 41.6658 93.9322 44.1216 94.2261C48.0399 94.7019 48.6416 89.6572 54.19 84.1787C64.2094 74.2782 80.8058 64.5597 80.6029 48.9498C79.9732 49.7475 79.4485 52.861 77.7552 55.9816C70.8004 68.7438 57.7234 74.1033 49.4602 85.9279C48.1378 87.824 47.1862 90.5738 44.0657 90.2169C41.232 89.8951 39.028 83.7659 34.9139 79.9176C33.2276 78.3434 31.8213 76.6082 29.9671 75.1528C22.7604 69.4854 15.4698 63.3002 11.2787 55.023C10.7819 54.0435 10.4391 53.0429 10.1452 52.0494C10.2502 51.6436 10.3551 51.2378 10.4811 50.8809C10.7679 50.0693 11.1877 49.2227 11.6355 48.593C11.9574 48.1382 12.0064 48.0332 12.3912 47.6834C14.945 45.3605 17.7018 45.1016 20.1576 42.2819L20.1506 42.2889ZM58.1362 41.1554V43.9191C55.8273 43.9191 53.5673 43.8911 51.2514 43.8911C48.6836 43.8911 46.5495 44.4159 44.8423 45.4514C44.2406 44.7448 43.5899 44.108 42.9392 43.4643L42.8622 43.3944C45.1362 41.8971 47.9489 41.1484 51.2864 41.1484H58.1362V41.1554Z" fill="#411353"/>
<path d="M114.041 0H109.221V94.9885H114.041V0Z" fill="#411353"/>
</g>
<path d="M201.837 101.005V112.381H200.045V101.005H201.837Z" fill="#411353"/>
<path d="M197.97 101.005V112.381H196.178V101.005H197.97Z" fill="#411353"/>
<path d="M192.401 110.774V106.952C192.401 106.666 192.349 106.419 192.245 106.212C192.142 106.004 191.984 105.844 191.771 105.73C191.564 105.617 191.302 105.56 190.986 105.56C190.695 105.56 190.443 105.609 190.231 105.708C190.018 105.807 189.853 105.94 189.735 106.108C189.616 106.276 189.557 106.466 189.557 106.678H187.779C187.779 106.362 187.856 106.056 188.009 105.76C188.162 105.463 188.384 105.199 188.675 104.967C188.967 104.735 189.315 104.553 189.72 104.419C190.125 104.286 190.579 104.219 191.082 104.219C191.685 104.219 192.218 104.32 192.682 104.523C193.151 104.725 193.519 105.031 193.786 105.441C194.057 105.846 194.193 106.355 194.193 106.967V110.529C194.193 110.895 194.218 111.223 194.267 111.514C194.321 111.801 194.398 112.05 194.497 112.262V112.381H192.667C192.583 112.188 192.517 111.944 192.467 111.648C192.423 111.347 192.401 111.055 192.401 110.774ZM192.66 107.508L192.675 108.611H191.394C191.063 108.611 190.771 108.643 190.52 108.707C190.268 108.767 190.058 108.856 189.89 108.974C189.722 109.093 189.596 109.236 189.512 109.404C189.428 109.571 189.386 109.762 189.386 109.974C189.386 110.186 189.436 110.381 189.535 110.559C189.633 110.732 189.777 110.868 189.964 110.966C190.157 111.065 190.389 111.114 190.66 111.114C191.026 111.114 191.344 111.04 191.616 110.892C191.892 110.739 192.109 110.554 192.267 110.337C192.425 110.115 192.509 109.905 192.519 109.707L193.097 110.5C193.038 110.702 192.937 110.919 192.793 111.151C192.65 111.384 192.463 111.606 192.23 111.818C192.003 112.025 191.729 112.196 191.408 112.329C191.092 112.462 190.727 112.529 190.312 112.529C189.789 112.529 189.322 112.425 188.912 112.218C188.503 112.006 188.182 111.722 187.95 111.366C187.718 111.006 187.602 110.598 187.602 110.144C187.602 109.72 187.681 109.344 187.839 109.018C188.001 108.688 188.238 108.411 188.55 108.189C188.866 107.967 189.251 107.799 189.705 107.685C190.159 107.567 190.678 107.508 191.26 107.508H192.66Z" fill="#411353"/>
<path d="M176.455 105.997V112.381H174.67V104.367H176.351L176.455 105.997ZM176.166 108.078L175.559 108.07C175.559 107.517 175.628 107.006 175.766 106.537C175.904 106.068 176.107 105.661 176.373 105.315C176.64 104.965 176.971 104.696 177.366 104.508C177.766 104.316 178.227 104.219 178.751 104.219C179.116 104.219 179.449 104.274 179.751 104.382C180.057 104.486 180.321 104.651 180.543 104.878C180.77 105.106 180.943 105.397 181.062 105.752C181.185 106.108 181.247 106.537 181.247 107.041V112.381H179.462V107.197C179.462 106.806 179.403 106.5 179.284 106.278C179.17 106.056 179.005 105.898 178.788 105.804C178.575 105.705 178.321 105.656 178.025 105.656C177.689 105.656 177.403 105.72 177.166 105.849C176.934 105.977 176.744 106.152 176.596 106.374C176.447 106.597 176.339 106.853 176.27 107.145C176.201 107.436 176.166 107.747 176.166 108.078ZM181.136 107.604L180.299 107.789C180.299 107.305 180.365 106.848 180.499 106.419C180.637 105.984 180.837 105.604 181.099 105.278C181.365 104.948 181.694 104.688 182.084 104.501C182.474 104.313 182.92 104.219 183.424 104.219C183.834 104.219 184.199 104.276 184.52 104.39C184.846 104.498 185.123 104.671 185.35 104.908C185.577 105.145 185.75 105.454 185.868 105.834C185.987 106.209 186.046 106.663 186.046 107.197V112.381H184.254V107.189C184.254 106.784 184.194 106.471 184.076 106.249C183.962 106.026 183.799 105.873 183.587 105.789C183.375 105.7 183.12 105.656 182.824 105.656C182.548 105.656 182.303 105.708 182.091 105.812C181.884 105.91 181.708 106.051 181.565 106.234C181.422 106.411 181.313 106.616 181.239 106.848C181.17 107.081 181.136 107.332 181.136 107.604Z" fill="#411353"/>
<path d="M163.126 101.597L165.236 106.396L167.362 101.597H169.969L166.466 108.485V112.381H164.014V108.485L160.504 101.597H163.126Z" fill="#411353"/>
<path d="M157.659 108.767H160.058C160.019 109.507 159.816 110.162 159.451 110.729C159.09 111.292 158.589 111.734 157.947 112.055C157.305 112.371 156.543 112.529 155.659 112.529C154.953 112.529 154.321 112.408 153.763 112.166C153.205 111.924 152.731 111.579 152.341 111.129C151.956 110.675 151.659 110.129 151.452 109.492C151.25 108.851 151.148 108.127 151.148 107.322V106.663C151.148 105.858 151.255 105.135 151.467 104.493C151.679 103.851 151.983 103.303 152.378 102.849C152.773 102.395 153.247 102.047 153.8 101.805C154.353 101.563 154.97 101.442 155.651 101.442C156.57 101.442 157.345 101.607 157.977 101.938C158.609 102.269 159.098 102.723 159.443 103.301C159.794 103.879 160.004 104.538 160.073 105.278H157.666C157.646 104.859 157.567 104.506 157.429 104.219C157.291 103.928 157.078 103.708 156.792 103.56C156.506 103.412 156.125 103.338 155.651 103.338C155.306 103.338 155.002 103.402 154.74 103.53C154.484 103.659 154.269 103.859 154.096 104.13C153.928 104.402 153.802 104.748 153.718 105.167C153.634 105.582 153.592 106.076 153.592 106.648V107.322C153.592 107.89 153.63 108.382 153.704 108.796C153.778 109.211 153.896 109.554 154.059 109.826C154.227 110.097 154.442 110.3 154.703 110.433C154.965 110.566 155.284 110.633 155.659 110.633C156.088 110.633 156.446 110.566 156.733 110.433C157.019 110.295 157.239 110.087 157.392 109.811C157.545 109.534 157.634 109.186 157.659 108.767Z" fill="#411353"/>
<path d="M145.823 103.649L143.038 112.381H140.461L144.453 101.597H146.082L145.823 103.649ZM148.134 112.381L145.342 103.649L145.053 101.597H146.704L150.711 112.381H148.134ZM148.015 108.366V110.233H142.394V108.366H148.015Z" fill="#411353"/>
<path d="M129.077 101.597H131.077L133.669 109.307L136.254 101.597H138.254L134.476 112.381H132.854L129.077 101.597ZM127.922 101.597H129.959L130.336 109.589V112.381H127.922V101.597ZM137.372 101.597H139.416V112.381H136.995V109.589L137.372 101.597Z" fill="#411353"/>
<path d="M118.117 101.597H122.257C123.082 101.597 123.795 101.721 124.398 101.967C125.005 102.214 125.472 102.58 125.797 103.064C126.123 103.547 126.286 104.145 126.286 104.856C126.286 105.448 126.19 105.952 125.997 106.367C125.805 106.782 125.533 107.125 125.183 107.396C124.837 107.668 124.432 107.888 123.968 108.055L123.183 108.485H119.658L119.643 106.611H122.265C122.625 106.611 122.924 106.547 123.161 106.419C123.398 106.29 123.576 106.11 123.694 105.878C123.818 105.641 123.879 105.364 123.879 105.048C123.879 104.723 123.818 104.441 123.694 104.204C123.571 103.967 123.388 103.787 123.146 103.664C122.909 103.535 122.613 103.471 122.257 103.471H120.532V112.381H118.117V101.597ZM124.087 112.381L121.665 107.589L124.213 107.581L126.671 112.27V112.381H124.087Z" fill="#411353"/>
<path d="M112.333 103.649L109.548 112.381H106.971L110.963 101.597H112.592L112.333 103.649ZM114.644 112.381L111.851 103.649L111.563 101.597H113.214L117.221 112.381H114.644ZM114.525 108.366V110.233H108.904V108.366H114.525Z" fill="#411353"/>
<path d="M104.259 105.937V107.804H98.675V105.937H104.259ZM99.4379 101.597V112.381H97.0234V101.597H99.4379ZM105.926 101.597V112.381H103.519V101.597H105.926Z" fill="#411353"/>
<path d="M91.4387 108.633H88.728V106.759H91.4387C91.8386 106.759 92.1596 106.693 92.4015 106.559C92.6484 106.426 92.8286 106.243 92.9421 106.011C93.0606 105.774 93.1199 105.508 93.1199 105.211C93.1199 104.905 93.0606 104.621 92.9421 104.36C92.8286 104.093 92.6484 103.878 92.4015 103.715C92.1596 103.552 91.8386 103.471 91.4387 103.471H89.6019V112.381H87.1875V101.597H91.4387C92.2978 101.597 93.0335 101.753 93.6457 102.064C94.2629 102.375 94.7345 102.802 95.0603 103.345C95.3911 103.883 95.5566 104.5 95.5566 105.197C95.5566 105.893 95.3911 106.498 95.0603 107.011C94.7345 107.525 94.2629 107.925 93.6457 108.211C93.0335 108.492 92.2978 108.633 91.4387 108.633Z" fill="#411353"/>
<path d="M81.485 104.367V112.381H79.6927V104.367H81.485ZM79.5742 102.264C79.5742 101.992 79.6631 101.768 79.8408 101.59C80.0235 101.407 80.2753 101.316 80.5963 101.316C80.9123 101.316 81.1616 101.407 81.3443 101.59C81.527 101.768 81.6183 101.992 81.6183 102.264C81.6183 102.531 81.527 102.753 81.3443 102.93C81.1616 103.108 80.9123 103.197 80.5963 103.197C80.2753 103.197 80.0235 103.108 79.8408 102.93C79.6631 102.753 79.5742 102.531 79.5742 102.264Z" fill="#411353"/>
<path d="M72.9021 106.078V112.381H71.1172V104.367H72.7984L72.9021 106.078ZM72.5836 108.078L72.0059 108.07C72.0109 107.503 72.0899 106.982 72.2429 106.508C72.4009 106.034 72.6182 105.626 72.8947 105.286C73.1761 104.945 73.5119 104.683 73.9019 104.501C74.292 104.313 74.7265 104.219 75.2054 104.219C75.5906 104.219 75.9387 104.274 76.2497 104.382C76.5657 104.486 76.8348 104.656 77.057 104.893C77.2841 105.13 77.4569 105.439 77.5754 105.819C77.6939 106.194 77.7532 106.656 77.7532 107.204V112.381H75.9609V107.197C75.9609 106.811 75.9041 106.508 75.7905 106.286C75.6819 106.058 75.5214 105.898 75.3091 105.804C75.1017 105.705 74.8425 105.656 74.5315 105.656C74.2253 105.656 73.9513 105.72 73.7094 105.849C73.4674 105.977 73.2625 106.152 73.0947 106.374C72.9317 106.597 72.8058 106.853 72.7169 107.145C72.6281 107.436 72.5836 107.747 72.5836 108.078Z" fill="#411353"/>
<path d="M69.1764 104.367V112.381H67.3841V104.367H69.1764ZM67.2656 102.264C67.2656 101.992 67.3545 101.768 67.5322 101.59C67.7149 101.407 67.9667 101.316 68.2877 101.316C68.6037 101.316 68.853 101.407 69.0357 101.59C69.2184 101.768 69.3097 101.992 69.3097 102.264C69.3097 102.531 69.2184 102.753 69.0357 102.93C68.853 103.108 68.6037 103.197 68.2877 103.197C67.9667 103.197 67.7149 103.108 67.5322 102.93C67.3545 102.753 67.2656 102.531 67.2656 102.264Z" fill="#411353"/>
<path d="M55.8376 105.997V112.381H54.0527V104.367H55.734L55.8376 105.997ZM55.5488 108.078L54.9415 108.07C54.9415 107.517 55.0106 107.006 55.1489 106.537C55.2871 106.068 55.4895 105.661 55.7562 105.315C56.0228 104.965 56.3536 104.696 56.7486 104.508C57.1485 104.316 57.6102 104.219 58.1336 104.219C58.4989 104.219 58.8322 104.274 59.1334 104.382C59.4395 104.486 59.7037 104.651 59.9259 104.878C60.153 105.106 60.3258 105.397 60.4443 105.752C60.5678 106.108 60.6295 106.537 60.6295 107.041V112.381H58.8446V107.197C58.8446 106.806 58.7853 106.5 58.6668 106.278C58.5533 106.056 58.3879 105.898 58.1706 105.804C57.9583 105.705 57.704 105.656 57.4078 105.656C57.072 105.656 56.7856 105.72 56.5486 105.849C56.3166 105.977 56.1265 106.152 55.9784 106.374C55.8302 106.597 55.7216 106.853 55.6525 107.145C55.5834 107.436 55.5488 107.747 55.5488 108.078ZM60.5184 107.604L59.6815 107.789C59.6815 107.305 59.7481 106.848 59.8814 106.419C60.0197 105.984 60.2197 105.604 60.4814 105.278C60.748 104.948 61.0763 104.688 61.4664 104.501C61.8564 104.313 62.3033 104.219 62.8069 104.219C63.2167 104.219 63.5821 104.276 63.903 104.39C64.2289 104.498 64.5054 104.671 64.7325 104.908C64.9597 105.145 65.1325 105.454 65.251 105.834C65.3695 106.209 65.4287 106.663 65.4287 107.197V112.381H63.6364V107.189C63.6364 106.784 63.5772 106.471 63.4587 106.249C63.3451 106.026 63.1822 105.873 62.9698 105.789C62.7575 105.7 62.5033 105.656 62.207 105.656C61.9305 105.656 61.6861 105.708 61.4738 105.812C61.2664 105.91 61.0911 106.051 60.9479 106.234C60.8048 106.411 60.6961 106.616 60.6221 106.848C60.5529 107.081 60.5184 107.332 60.5184 107.604Z" fill="#411353"/>
<path d="M44.5953 103.034L41.3736 112.381H39.4258L43.4844 101.597H44.7287L44.5953 103.034ZM47.2912 112.381L44.0621 103.034L43.9214 101.597H45.173L49.2465 112.381H47.2912ZM47.1357 108.381V109.855H41.2699V108.381H47.1357Z" fill="#411353"/>
<defs>
<clipPath id="clip0_6_3386">
<rect width="336" height="100.012" fill="white"/>
</clipPath>
</defs>
</svg>
