<svg width="515" height="108" viewBox="0 0 515 108" fill="none" xmlns="http://www.w3.org/2000/svg">
<path d="M43.336 75.7594C43.8253 74.9016 44.1427 73.9589 44.4809 72.9614C44.8304 71.9242 45.1912 70.853 45.7674 69.8668C46.5231 68.5689 47.6359 67.492 48.9357 66.742V58.5937C48.9357 57.564 48.1007 56.729 47.071 56.729H39.6161C38.5864 56.729 37.7514 57.564 37.7514 58.5937V68.2987H28.0463C27.0167 68.2987 26.1816 69.1338 26.1816 70.1634V77.6184C26.1816 78.648 27.0167 79.4831 28.0463 79.4831H37.6777C40.0015 79.2072 42.176 77.7979 43.3379 75.7613L43.336 75.7594Z" fill="url(#paint0_linear_51_1757)"/>
<path d="M58.6033 68.2646H48.9153C48.0897 68.8597 47.385 69.6173 46.873 70.4977C46.3667 71.3686 46.0417 72.3321 45.6979 73.3504C45.3559 74.365 45.0026 75.4116 44.4491 76.3808C43.0699 78.799 40.4779 80.4672 37.7158 80.7695V89.1521C37.7158 90.1817 38.5509 91.0168 39.5805 91.0168H47.0355C48.0651 91.0168 48.9002 90.1817 48.9002 89.1521V79.447H58.6052C59.6348 79.447 60.4699 78.612 60.4699 77.5823V70.1274C60.4699 69.0977 59.6348 68.2627 58.6052 68.2627L58.6033 68.2646Z" fill="url(#paint1_linear_51_1757)"/>
<path opacity="0.25" d="M48.9357 58.1844C48.7502 57.353 48.0061 56.729 47.1145 56.729H39.644C38.6122 56.729 37.7754 57.5623 37.7754 58.5898V68.2744H28.0502C27.0184 68.2744 26.1816 69.1077 26.1816 70.1352V77.5745C26.1816 77.8082 26.2271 78.0307 26.3066 78.2362C30.6779 78.2494 35.0379 76.2039 37.7395 72.767C38.9057 71.2814 39.7708 69.5903 40.6852 67.7974C41.6356 65.9367 42.6201 64.0118 43.9832 62.3075C45.3349 60.6183 47.035 59.2213 48.9357 58.1825V58.1844Z" fill="#F1F1F2"/>
<path d="M55.7936 63.0933C55.8078 64.0387 55.0323 64.8287 54.0872 64.834C53.1422 64.8375 52.3614 64.0547 52.3667 63.1092C52.372 62.1886 53.1192 61.4269 54.0413 61.4057C54.9899 61.3845 55.7813 62.1461 55.7954 63.0951L55.7936 63.0933Z" fill="white"/>
<path d="M61.4741 104.866C61.4741 106.396 60.1837 107.674 58.6564 107.659C57.1291 107.643 55.8604 106.334 55.8947 104.807C55.9259 103.32 57.1696 102.092 58.6564 102.076C60.1931 102.061 61.4741 103.329 61.4741 104.866Z" fill="white"/>
<path d="M65.7945 88.3079C67.2564 88.3079 68.4751 89.5173 68.4751 90.976C68.4751 92.4316 67.2595 93.6566 65.8039 93.6597C64.3576 93.6629 63.1232 92.4316 63.1201 90.9854C63.117 89.5297 64.3357 88.3079 65.7914 88.3079H65.7945Z" fill="white"/>
<path d="M36.3627 96.6951C37.2604 96.7823 37.8184 97.2437 37.8994 98.1538C37.9742 98.9923 37.2168 99.7747 36.3783 99.7154C35.4744 99.6531 34.9196 99.1232 34.9102 98.2193C34.904 97.306 35.4806 96.8291 36.3627 96.6951Z" fill="white"/>
<path d="M53.8965 85.7168C54.4572 85.7708 54.8056 86.0561 54.8563 86.6191C54.903 87.1377 54.4299 87.6217 53.9062 87.585C53.3417 87.5465 52.9951 87.2187 52.9893 86.6596C52.9854 86.0947 53.3456 85.7997 53.8965 85.7168Z" fill="white"/>
<path d="M24.6697 52.3144C24.5575 52.2115 24.2957 51.9902 24.0557 51.7471C17.9588 45.5848 11.8059 39.4754 5.78385 33.2415C0.456903 27.7306 -1.29796 21.1444 0.968091 13.7977C3.23103 6.46025 8.35849 1.93749 15.8736 0.425748C22.1761 -0.842869 27.955 0.718745 32.5838 5.17605C39.2729 11.6189 45.7001 18.336 52.2364 24.9378C52.2894 24.9908 52.3144 25.0687 52.2801 25.0064C40.4074 31.3837 31.1874 40.37 24.676 52.3112L24.6697 52.3144ZM10.1508 28.8933C9.80166 29.1925 9.278 29.4294 9.2406 29.7286C9.18137 30.193 9.29982 30.8476 9.6084 31.1655C12.1145 33.7558 14.6798 36.2868 17.2263 38.8396C17.7968 39.4131 18.4389 39.6157 19.056 39.0017C19.6888 38.3751 19.4269 37.7362 18.8659 37.1751C16.3162 34.6285 13.7727 32.0726 11.2105 29.5385C10.9518 29.2829 10.5747 29.1426 10.1539 28.8901L10.1508 28.8933ZM8.3616 27.2724C8.1964 26.3124 6.90908 25.0032 6.19218 24.9908C5.44721 24.9783 4.77394 25.5394 5.042 26.0755C5.44721 26.8797 6.24828 27.5374 7.01506 28.0673C7.19585 28.1919 7.89717 27.5592 8.3616 27.2755V27.2724Z" fill="white"/>
<path d="M27.5036 55.1632C27.2823 54.6364 26.927 54.2094 27.0174 53.9351C27.4319 52.6914 27.8496 51.4197 28.4948 50.2882C31.4653 45.0642 35.5299 40.7347 39.8656 36.642C42.9514 33.7308 46.2149 31.0314 49.9366 28.9586C51.0774 28.3228 52.318 27.8209 53.5648 27.422C54.6339 27.0791 55.0017 27.45 54.6838 28.5098C54.3378 29.6506 53.9451 30.8226 53.3217 31.8263C47.7485 40.7876 40.4454 48.0253 31.403 53.4738C30.2933 54.144 29.006 54.5211 27.5036 55.1632Z" fill="white"/>
<path d="M10.1517 28.8926C10.5725 29.1451 10.9496 29.2853 11.2083 29.5409C13.7705 32.075 16.314 34.631 18.8637 37.1776C19.4247 37.7386 19.6834 38.3745 19.0538 39.0041C18.4366 39.615 17.7977 39.4156 17.2241 38.842C14.6807 36.2892 12.1123 33.7582 9.60619 31.168C9.2976 30.8501 9.17916 30.1955 9.23838 29.7311C9.27579 29.4318 9.79944 29.198 10.1485 28.8957L10.1517 28.8926Z" fill="#A64AC7"/>
<path d="M8.36177 27.272C7.90045 27.5557 7.19601 28.1884 7.01523 28.0637C6.25156 27.5338 5.44738 26.8762 5.04217 26.072C4.77411 25.5359 5.44426 24.9748 6.19234 24.9873C6.90925 24.9997 8.19657 26.312 8.36177 27.2689V27.272Z" fill="#A64AC7"/>
<path d="M84.9552 76.0997C78.3596 63.7658 69.311 54.5956 57.4165 48.0998C57.9152 47.601 58.5355 46.9776 59.162 46.3605C64.8848 40.7 70.5765 35.0115 76.3367 29.3884C81.9036 23.9555 88.5584 22.1695 95.9706 24.4542C103.342 26.7265 107.862 31.9194 109.33 39.5062C110.508 45.5968 109.056 51.223 104.826 55.7457C98.352 62.6717 91.5912 69.3296 84.9552 76.0966V76.0997ZM79.8838 35.2796C79.5378 34.9055 79.2729 34.3725 78.9425 34.3258C78.4936 34.2634 77.8578 34.4349 77.5336 34.7466C74.9714 37.2308 72.4685 39.7743 69.9406 42.2928C69.3826 42.8476 69.0772 43.4741 69.6943 44.1162C70.3489 44.7989 71.0066 44.5277 71.6082 43.9261C74.0987 41.4263 76.6047 38.9389 79.0921 36.4328C79.3757 36.1461 79.5596 35.7596 79.8869 35.2764L79.8838 35.2796ZM83.992 31.0342C83.5432 30.7225 82.8512 30.0492 82.6829 30.1615C81.9005 30.682 81.2397 31.3958 80.6319 32.122C80.5914 32.1688 81.2865 33.0758 81.7571 33.2473C82.34 33.4592 83.7645 31.9787 83.9889 31.0342H83.992Z" fill="white"/>
<path d="M82.4907 78.5064C81.1535 78.0731 80.0127 77.9204 79.1088 77.3718C76.6931 75.9068 74.2494 74.4356 72.0519 72.6714C66.2325 68.0021 61.1175 62.644 57.1215 56.304C56.283 54.9731 55.7095 53.4676 55.0768 52.0151C54.8929 51.588 54.9334 51.0644 54.8149 50.176C56.1116 50.5812 57.24 50.6934 58.0909 51.2389C61.0178 53.1278 64.0007 54.9793 66.6782 57.1893C71.9397 61.5375 76.5498 66.534 80.1842 72.3534C81.0164 73.6906 81.5962 75.1899 82.2289 76.6424C82.4128 77.0695 82.3754 77.5931 82.4939 78.5033L82.4907 78.5064Z" fill="white"/>
<path d="M79.8859 35.28C79.5587 35.7632 79.3748 36.1497 79.0911 36.4364C76.6069 38.9425 74.1008 41.4299 71.6072 43.9297C71.0088 44.5313 70.3511 44.8025 69.6934 44.1198C69.0762 43.4777 69.3817 42.8512 69.9396 42.2964C72.4675 39.7779 74.9704 37.2344 77.5326 34.7501C77.8537 34.4384 78.4927 34.267 78.9415 34.3293C79.275 34.3761 79.5368 34.9091 79.8828 35.2831L79.8859 35.28Z" fill="#A64AC7"/>
<path d="M83.9925 31.0351C83.7681 31.9796 82.3436 33.4602 81.7607 33.2482C81.2869 33.0768 80.595 32.1728 80.6355 32.123C81.2433 31.3967 81.9041 30.6798 82.6865 30.1624C82.8548 30.0502 83.5436 30.7234 83.9956 31.0351H83.9925Z" fill="#A64AC7"/>
<path d="M514.543 44.2165H505.748V60.405C505.748 61.754 506.085 62.7398 506.76 63.3625C507.434 63.9851 508.42 64.3483 509.717 64.4521C511.015 64.504 512.623 64.478 514.543 64.3742V73.4802C507.642 74.2585 502.765 73.6099 499.911 71.5345C497.109 69.4591 495.708 65.7492 495.708 60.405V44.2165H488.937V34.5657H495.708V26.705L505.748 23.6697V34.5657H514.543V44.2165Z" fill="white"/>
<path d="M476.765 34.5659H487.506L473.341 73.4804C471.317 79.0841 468.619 83.1312 465.247 85.6217C461.926 88.1641 457.775 89.3056 452.794 89.0462V79.7067C455.492 79.7586 457.619 79.1879 459.176 77.9945C460.784 76.8011 462.056 74.8813 462.99 72.2351L447.035 34.5659H458.009L468.126 60.7165L476.765 34.5659Z" fill="white"/>
<path d="M432.855 41.2592C433.789 38.7687 435.32 36.9008 437.447 35.6555C439.627 34.4102 442.039 33.7876 444.685 33.7876V44.995C441.624 44.6318 438.874 45.2544 436.436 46.8629C434.049 48.4713 432.855 51.1435 432.855 54.8793V73.4804H422.815V34.5659H432.855V41.2592Z" fill="white"/>
<path d="M403.671 34.5657H413.711V73.4802H403.671V68.8883C400.662 72.6759 396.433 74.5698 390.985 74.5698C385.797 74.5698 381.334 72.5981 377.599 68.6548C373.915 64.6595 372.073 59.7823 372.073 54.0229C372.073 48.2636 373.915 43.4122 377.599 39.4689C381.334 35.4737 385.797 33.4761 390.985 33.4761C396.433 33.4761 400.662 35.3699 403.671 39.1576V34.5657ZM385.148 61.9615C387.172 63.985 389.74 64.9968 392.853 64.9968C395.966 64.9968 398.535 63.985 400.558 61.9615C402.634 59.886 403.671 57.2399 403.671 54.0229C403.671 50.806 402.634 48.1857 400.558 46.1622C398.535 44.0868 395.966 43.049 392.853 43.049C389.74 43.049 387.172 44.0868 385.148 46.1622C383.124 48.1857 382.113 50.806 382.113 54.0229C382.113 57.2399 383.124 59.886 385.148 61.9615Z" fill="white"/>
<path d="M350.859 33.4761C355.321 33.4761 358.876 34.9289 361.522 37.8345C364.22 40.7401 365.569 44.6316 365.569 49.5088V73.4802H355.529V50.2093C355.529 47.8744 354.958 46.0584 353.817 44.7613C352.675 43.4641 351.067 42.8155 348.991 42.8155C346.708 42.8155 344.918 43.5679 343.621 45.0726C342.376 46.5773 341.753 48.7565 341.753 51.6102V73.4802H331.713V50.2093C331.713 47.8744 331.143 46.0584 330.001 44.7613C328.86 43.4641 327.251 42.8155 325.176 42.8155C322.945 42.8155 321.155 43.5679 319.805 45.0726C318.508 46.5773 317.86 48.7565 317.86 51.6102V73.4802H307.82V34.5657H317.86V38.6906C320.195 35.2143 323.801 33.4761 328.678 33.4761C333.452 33.4761 336.98 35.344 339.263 39.0798C341.857 35.344 345.723 33.4761 350.859 33.4761Z" fill="white"/>
<path d="M290.118 41.2592C291.052 38.7687 292.583 36.9008 294.71 35.6555C296.889 34.4102 299.302 33.7876 301.948 33.7876V44.995C298.887 44.6318 296.137 45.2544 293.698 46.8629C291.311 48.4713 290.118 51.1435 290.118 54.8793V73.4804H280.078V34.5659H290.118V41.2592Z" fill="white"/>
<path d="M260.934 34.5657H270.974V73.4802H260.934V68.8883C257.925 72.6759 253.696 74.5698 248.248 74.5698C243.059 74.5698 238.597 72.5981 234.861 68.6548C231.177 64.6595 229.335 59.7823 229.335 54.0229C229.335 48.2636 231.177 43.4122 234.861 39.4689C238.597 35.4737 243.059 33.4761 248.248 33.4761C253.696 33.4761 257.925 35.3699 260.934 39.1576V34.5657ZM242.411 61.9615C244.434 63.985 247.003 64.9968 250.116 64.9968C253.229 64.9968 255.797 63.985 257.821 61.9615C259.896 59.886 260.934 57.2399 260.934 54.0229C260.934 50.806 259.896 48.1857 257.821 46.1622C255.797 44.0868 253.229 43.049 250.116 43.049C247.003 43.049 244.434 44.0868 242.411 46.1622C240.387 48.1857 239.375 50.806 239.375 54.0229C239.375 57.2399 240.387 59.886 242.411 61.9615Z" fill="white"/>
<path d="M208.076 33.4762C212.331 33.4762 215.833 34.9031 218.583 37.7568C221.385 40.6105 222.786 44.5539 222.786 49.5868V73.4803H212.746V50.8321C212.746 48.2378 212.046 46.2661 210.645 44.917C209.244 43.5161 207.376 42.8157 205.041 42.8157C202.447 42.8157 200.371 43.6199 198.815 45.2284C197.258 46.8368 196.48 49.2495 196.48 52.4665V73.4803H186.44V19H196.48V38.9242C198.919 35.2922 202.784 33.4762 208.076 33.4762Z" fill="white"/>
<path d="M156.012 29.7802L150.585 29.8248V30.5347L160.687 30.4903C163.413 30.4903 165.752 32.8771 166.201 33.9951C166.02 33.5429 165.82 33.1421 165.607 32.7855C163.784 29.7389 159.562 29.751 156.012 29.7802Z" fill="white"/>
<path d="M155.905 29.7798L150.376 29.8249V30.5347L160.579 30.4904C163.245 30.5515 165.644 32.8772 166.093 33.9952C165.911 33.5425 165.711 33.1413 165.498 32.7845C163.675 29.7389 159.454 29.7509 155.905 29.7798Z" fill="white"/>
<path fill-rule="evenodd" clip-rule="evenodd" d="M177.431 44.0546C178.841 41.5049 179.547 38.7731 179.547 35.8591C179.547 32.633 178.789 29.7451 177.274 27.1954C175.811 24.6457 173.59 22.6424 170.612 21.1854C167.633 19.7285 164.028 19 159.795 19H139.652V27.8979V27.898H150.585V27.8979H159.254C165.189 27.8979 168.157 30.5516 168.157 35.8591C168.157 38.3568 167.428 40.3081 165.97 41.713C164.512 43.0659 162.274 43.7424 159.254 43.7424H150.789V43.7425H139.652V62.5069C139.652 68.5672 144.565 73.48 150.625 73.48V52.5622H159.795C164.289 52.5622 167.999 51.7817 170.925 50.2206C173.903 48.6596 176.072 46.6042 177.431 44.0546ZM139.652 43.3135H150.36V28.327H139.652V35.8201V41.0412L147.924 41.0049V41.7147L142.497 41.7594C141.574 41.767 140.608 41.7703 139.652 41.7179V43.3135Z" fill="white"/>
<path fill-rule="evenodd" clip-rule="evenodd" d="M135.726 43.4336C134.255 43.1117 133.076 42.5382 132.187 41.7131C130.729 40.3082 130 38.3569 130 35.8592C130 30.5517 132.968 27.8979 138.903 27.8979H150.789V27.898H138.903C132.968 27.898 130 30.5517 130 35.8592C130 38.3569 130.729 40.3082 132.187 41.7131C133.076 42.5382 134.256 43.1117 135.726 43.4336ZM147.923 41.7147L142.496 41.7593C138.946 41.7885 134.767 41.7548 132.911 38.7282C132.709 38.398 132.518 38.0309 132.34 37.6218C132.862 38.7687 135.157 41.0492 137.821 41.0492L147.923 41.0049V41.7147ZM132.307 37.5444C132.317 37.5696 132.328 37.5954 132.34 37.6218C132.329 37.5962 132.318 37.5704 132.307 37.5444ZM138.903 43.3135C135.939 43.3135 133.828 42.6487 132.482 41.4014C131.128 40.0957 130.429 38.2677 130.429 35.8592C130.429 33.2848 131.147 31.4288 132.512 30.2081C133.886 28.9791 135.99 28.327 138.903 28.327H150.36V43.3135H138.903Z" fill="white"/>
<defs>
<linearGradient id="paint0_linear_51_1757" x1="26.2912" y1="56.8386" x2="48.4426" y2="78.99" gradientUnits="userSpaceOnUse">
<stop stop-color="white"/>
<stop offset="0.82" stop-color="#CE89E7"/>
</linearGradient>
<linearGradient id="paint1_linear_51_1757" x1="37.8254" y1="68.3723" x2="59.9768" y2="90.5237" gradientUnits="userSpaceOnUse">
<stop stop-color="white"/>
<stop offset="0.82" stop-color="#CE89E7"/>
</linearGradient>
</defs>
</svg>
